<svg xmlns="http://www.w3.org/2000/svg" viewBox="0 0 1200 900">
  <defs>
    <linearGradient id="bg" x1="0" x2="1" y1="0" y2="1">
      <stop offset="0%" stop-color="#fffaf2"/>
      <stop offset="100%" stop-color="#ead4ba"/>
    </linearGradient>
    <linearGradient id="wood" x1="0" x2="1">
      <stop offset="0%" stop-color="#b07f56"/>
      <stop offset="100%" stop-color="#d6ab7e"/>
    </linearGradient>
  </defs>
  <rect width="1200" height="900" fill="url(#bg)"/>
  <rect x="90" y="120" width="1020" height="660" rx="40" fill="url(#wood)"/>
  <ellipse cx="600" cy="450" rx="310" ry="240" fill="#fff" opacity=".18"/>
  <ellipse cx="600" cy="456" rx="250" ry="190" fill="#f6f8fb"/>
  <ellipse cx="600" cy="456" rx="212" ry="156" fill="#ffffff"/>
  <path d="M470 404c0-52 54-94 130-94s130 42 130 94v12H470z" fill="#e3ab56"/>
  <path d="M482 398c14-34 56-58 118-58 64 0 106 20 118 58H482z" fill="#f4c57d"/>
  <rect x="470" y="416" width="260" height="46" rx="18" fill="#7fc16e"/>
  <rect x="486" y="430" width="228" height="20" rx="10" fill="#68a95a"/>
  <rect x="474" y="462" width="252" height="36" rx="18" fill="#ffd47b"/>
  <circle cx="546" cy="480" r="10" fill="#f0a55d"/>
  <circle cx="620" cy="476" r="10" fill="#f0a55d"/>
  <circle cx="678" cy="484" r="10" fill="#f0a55d"/>
  <rect x="468" y="500" width="264" height="40" rx="18" fill="#8d5030"/>
  <path d="M470 540h260c-8 58-64 96-130 96s-120-38-130-96z" fill="#e6af61"/>
  <path d="M788 310h170v126H788z" fill="#ffffff" opacity=".94"/>
  <path d="M808 330h130v86H808z" fill="#d1f0ff"/>
  <path d="M830 368h84" stroke="#8bb4c7" stroke-width="14" stroke-linecap="round"/>
  <path d="M250 300h196v112H250z" fill="#fff2dd"/>
  <path d="M280 334h136v44" stroke="#ffb66e" stroke-width="28" stroke-linecap="round"/>
  <circle cx="314" cy="608" r="76" fill="#f7fbff"/>
  <circle cx="314" cy="608" r="42" fill="#ffdb6b"/>
  <circle cx="314" cy="608" r="18" fill="#ffbc2e"/>
  <ellipse cx="890" cy="620" rx="76" ry="52" fill="#f7fbff"/>
  <ellipse cx="860" cy="612" rx="28" ry="18" fill="#ff8d7b"/>
  <ellipse cx="904" cy="606" rx="26" ry="17" fill="#8bcf7d"/>
  <ellipse cx="922" cy="630" rx="24" ry="16" fill="#ffcb59"/>
</svg>
