<svg width="1200" height="800" viewBox="0 0 1200 800" fill="none" xmlns="http://www.w3.org/2000/svg">
  <rect width="1200" height="800" fill="#F4EFE6"/>
  <rect x="70" y="80" width="1060" height="640" rx="36" fill="#E6D6C3"/>
  <ellipse cx="390" cy="390" rx="250" ry="170" fill="#FAFAF8"/>
  <ellipse cx="390" cy="390" rx="210" ry="132" fill="#EFD6A4"/>
  <ellipse cx="390" cy="392" rx="184" ry="110" fill="#F4DEB4"/>
  <circle cx="330" cy="348" r="16" fill="#E79A49"/>
  <circle cx="430" cy="420" r="14" fill="#E79A49"/>
  <circle cx="472" cy="352" r="12" fill="#E79A49"/>
  <circle cx="360" cy="438" r="11" fill="#D0A35C"/>
  <circle cx="285" cy="402" r="13" fill="#D0A35C"/>
  <ellipse cx="830" cy="300" rx="118" ry="86" fill="#FBFBF9"/>
  <ellipse cx="830" cy="300" rx="92" ry="62" fill="#FFF9D9"/>
  <ellipse cx="830" cy="305" rx="36" ry="42" fill="#F4A536"/>
  <rect x="718" y="493" width="236" height="66" rx="33" fill="#E8C95A"/>
  <rect x="748" y="510" width="176" height="32" rx="16" fill="#F6DD83"/>
  <rect x="740" y="236" width="180" height="24" rx="12" fill="#FDFDFB" opacity="0.55"/>
  <ellipse cx="390" cy="332" rx="96" ry="18" fill="#FFFFFF" opacity="0.2"/>
  <ellipse cx="830" cy="260" rx="54" ry="12" fill="#FFFFFF" opacity="0.25"/>
  <rect x="110" y="110" width="980" height="580" rx="28" stroke="#CBAF92" stroke-width="10" opacity="0.45"/>
</svg>
